<svg width="354" height="70" viewBox="0 0 354 70" fill="none" xmlns="http://www.w3.org/2000/svg">
<path d="M10.6609 41.3879C10.7682 41.9653 10.928 42.5319 11.1386 43.0805C11.3399 43.5912 11.5774 44.0871 11.8493 44.5644C12.512 45.7448 13.2927 46.8557 14.1796 47.8801C16.2247 50.235 18.6408 52.2436 21.3335 53.8274C27.1577 57.3396 33.6534 59.6059 40.4066 60.4819C42.1289 60.656 43.8611 60.7141 45.5914 60.6558C47.3624 60.6558 49.1566 60.5283 50.9859 60.3892C54.6094 60.1109 58.3145 59.7168 62.0313 59.1719C69.557 58.1671 76.9345 56.2677 84.0055 53.5144L84.1221 53.7347C84.1138 53.7663 84.0992 53.7959 84.0792 53.8218C84.0592 53.8477 84.0341 53.8693 84.0055 53.8854L83.8541 53.9897L83.5511 54.1984L82.9453 54.6041C82.5491 54.8708 82.153 55.149 81.7802 55.4041C80.9646 55.9258 80.1373 56.4359 79.2984 56.9228C77.6207 57.9198 75.9312 58.8821 74.2068 59.7863C70.7115 61.6181 67.2161 63.2643 63.5692 64.7946C59.8938 66.3017 56.1077 67.5264 52.2442 68.4581C48.2386 69.434 44.1341 69.9513 40.0104 70C35.7776 70.0816 31.5519 69.6179 27.4387 68.6204C23.2559 67.6259 19.2298 66.0656 15.4729 63.9831C11.4806 61.7939 7.95145 58.8572 5.07996 55.3345C3.53746 53.3842 2.2965 51.2155 1.39816 48.9003C0.929208 47.7053 0.566626 46.4717 0.314594 45.2136C0.0867796 43.924 -0.0185462 42.6159 1.00378e-05 41.3067L10.6609 41.3879Z" fill="white"/>
<path d="M47.4206 41.3879L47.3041 0.811527H37.8083L23.8268 24.2299L9.49577 0.811527H0V41.3879H10.6609V20.4621L21.147 37.3882H26.2736L36.7597 19.8824L36.8762 41.3879H47.4206ZM55.5765 41.3879H67.1112V0.811527H55.5765V41.3879ZM100.539 41.3879H112.901L104.104 28.6353C106.558 27.5399 108.627 25.7415 110.049 23.4701C111.471 21.1986 112.179 18.557 112.085 15.8827C112.085 6.60815 105.094 0.869493 93.9674 0.869493H75.3253V41.4458H86.8601V30.6062H93.21L100.539 41.3879ZM100.422 15.8248C100.422 19.5346 98.0919 21.7373 93.2566 21.7373H86.8484V9.85426H93.2566C98.0453 9.85426 100.434 12.057 100.434 15.8248H100.422ZM139.011 42.1994C152.06 42.1994 161.673 33.2726 161.673 21.0997C161.673 8.9268 152.06 0 139.011 0C125.962 0 116.349 8.9268 116.349 21.0997C116.349 33.2726 125.962 42.1994 139.011 42.1994ZM139.011 32.6929C132.836 32.6929 128.001 28.1136 128.001 21.0997C128.001 14.0858 132.836 9.50646 139.011 9.50646C145.186 9.50646 150.022 14.1438 150.022 21.0997C150.022 28.0556 145.186 32.6929 139.011 32.6929ZM193.411 41.3879H204.946V9.91222H217.412V0.811527H180.827V9.91222H193.411V41.3879ZM233.025 32.519V25.0994H251.143V16.5204H233.025V9.68036H253.59V0.811527H221.642V41.3879H254.382V32.519H233.025ZM291.281 41.3879H303.282L285.258 0.811527H273.898L255.896 41.3879H267.664L270.868 33.5045H288.112L291.281 41.3879ZM274.247 25.0414L279.49 12.057L284.733 25.0414H274.247ZM354 41.3879L353.884 0.811527H344.388L330.406 24.2299L316.087 0.811527H306.591V41.3879H317.252V20.4621L327.668 37.3882H332.806L343.293 19.8824L343.397 41.3879H354Z" fill="white"/>
</svg>
