<svg width="171" height="45" viewBox="0 0 171 45" fill="none" xmlns="http://www.w3.org/2000/svg">
<g clip-path="url(#clip0_174_379)">
<path d="M8.17992 12.7122V23.8956C8.17992 26.9164 6.3376 29.3726 4.08996 29.3726C1.84233 29.3726 0 26.9164 0 23.8956V2.22656C0.0653714 2.32669 0.136096 2.42323 0.211867 2.51579L8.17992 12.7122Z" fill="white"/>
<path d="M31.6465 13.3136V24.4832C31.6465 27.504 33.4888 29.9556 35.741 29.9556C37.9933 29.9556 39.8264 27.504 39.8264 24.4832V2.80957C39.7619 2.91516 39.6882 3.01157 39.6191 3.10339L31.6465 13.3136Z" fill="white"/>
<path d="M31.9459 2.07514V11.5186C31.9466 11.7114 31.9059 11.9022 31.8264 12.078C31.747 12.2538 31.6307 12.4106 31.4853 12.5378L23.7383 19.1992C22.84 19.9616 21.7228 20.4211 20.5465 20.5122C20.2062 20.5397 19.8643 20.5397 19.524 20.5122V20.5122C19.4406 20.5063 19.3575 20.4956 19.2753 20.4801C18.1254 20.334 17.0507 19.8313 16.2032 19.0431C15.723 18.6074 15.3423 18.0738 15.0872 17.4786C14.8321 16.8833 14.7084 16.2404 14.7245 15.5933C14.7407 14.9462 14.8963 14.3101 15.1809 13.7282C15.4654 13.1464 15.8722 12.6324 16.3736 12.221L20.0583 9.05331L29.3022 1.05137C30.297 0.197464 31.9459 0.831008 31.9459 2.07514Z" fill="white"/>
<path d="M8.17983 1.45991V11.2202C8.17865 11.4177 8.21903 11.6134 8.29836 11.7945C8.37769 11.9755 8.49421 12.138 8.64042 12.2715L16.3598 19.1578C17.2471 19.9505 18.369 20.4339 19.5562 20.5351C19.8945 20.5718 20.2358 20.5718 20.5741 20.5351V20.5351C20.6577 20.5312 20.7409 20.5204 20.8228 20.503C22.0031 20.3545 23.1018 19.8239 23.9501 18.9926C24.4326 18.5333 24.8132 17.9783 25.0674 17.3634C25.3216 16.7486 25.4437 16.0875 25.4259 15.4227C25.4081 14.7579 25.2508 14.1042 24.9641 13.5038C24.6774 12.9033 24.2677 12.3693 23.7613 11.9363L20.0766 8.66303L10.819 0.408592C9.82871 -0.459088 8.17983 0.179047 8.17983 1.45991Z" fill="white"/>
<path d="M8.17525 23.0968C8.24967 23.5638 8.36054 24.0243 8.50687 24.4741C8.64939 24.9283 8.82805 25.3704 9.04115 25.7962C9.5054 26.7187 10.0841 27.5794 10.7637 28.358C12.3245 30.1297 14.1611 31.6395 16.2032 32.8295C20.6428 35.4737 25.5817 37.1772 30.7115 37.8336C32.0213 37.9639 33.3384 38.0084 34.6541 37.9667C35.999 37.9667 37.3669 37.8703 38.7532 37.7693C41.5167 37.5581 44.3309 37.2551 47.1542 36.8511C52.8056 36.011 58.4938 34.7715 63.8872 32.5954L63.9793 32.7561C63.9645 32.8047 63.9315 32.8458 63.8872 32.8708L63.772 32.9489L63.5463 33.105L63.0858 33.4126C62.7818 33.6146 62.4778 33.8211 62.1646 34.014C61.5474 34.4088 60.9164 34.7898 60.2808 35.1617C59.0096 35.91 57.7246 36.6354 56.4073 37.3148C53.7866 38.6921 51.0876 39.9546 48.3149 41.0794C45.5196 42.2135 42.6419 43.1343 39.7066 43.8339C36.6576 44.5685 33.5349 44.9566 30.3983 44.9908C27.1797 45.0587 23.9659 44.7115 20.8366 43.9579C17.6598 43.2136 14.5995 42.0413 11.7402 40.4734C8.70885 38.8341 6.02363 36.6268 3.83197 33.9726C2.66349 32.5058 1.7212 30.8734 1.03624 29.1292C0.685408 28.222 0.418692 27.2846 0.239438 26.3288C0.0646231 25.3671 -0.0155914 24.3908 -6.38031e-05 23.4136L8.17525 23.0968Z" fill="white"/>
<path d="M66.7843 22.1924L66.7428 15.1132L63.2977 20.8794H61.612L58.1852 15.306V22.1924H54.6848V8.83746H57.8029L62.5101 16.5272L67.1159 8.81909H70.2386L70.2755 22.174L66.7843 22.1924Z" fill="white"/>
<path d="M72.9376 8.83752H76.7282V22.1925H72.9376V8.83752Z" fill="white"/>
<path d="M85.2858 18.6437H83.2178V22.1925H79.4272V8.83752H85.553C89.21 8.83752 91.5083 10.7244 91.5083 13.7773C91.5442 14.6605 91.3143 15.5341 90.8481 16.286C90.3819 17.0378 89.7007 17.6335 88.8922 17.9964L91.7847 22.1925H87.7269L85.2858 18.6437ZM85.3227 11.8124H83.2178V15.7239H85.3227C86.8933 15.7239 87.6809 14.9985 87.6809 13.7773C87.6809 12.5562 86.8933 11.8124 85.3227 11.8124V11.8124Z" fill="white"/>
<path d="M92.9038 15.5172C92.9038 11.5093 96.0634 8.57117 100.351 8.57117C104.639 8.57117 107.776 11.5093 107.776 15.5172C107.776 19.5251 104.621 22.4632 100.333 22.4632C96.045 22.4632 92.9038 19.5251 92.9038 15.5172ZM103.958 15.5172C103.958 13.2217 102.369 11.6976 100.342 11.6976C98.3156 11.6976 96.722 13.208 96.722 15.5172C96.722 17.8264 98.311 19.3322 100.342 19.3322C102.373 19.3322 103.967 17.8264 103.967 15.5172H103.958Z" fill="white"/>
<path d="M118.208 11.8354H114.091V8.83752H126.093V11.8354H121.999V22.1925H118.208V11.8354Z" fill="white"/>
<path d="M138.266 19.2818V22.197H127.507V8.83752H138.018V11.7573H131.266V14.0069H137.221V16.8303H131.266V19.2818H138.266Z" fill="white"/>
<path d="M149.348 19.5986H143.701L142.647 22.1925H138.782L144.696 8.83752H148.432L154.364 22.1925H150.421L149.348 19.5986ZM148.238 16.8119L146.515 12.5378L144.793 16.8119H148.238Z" fill="white"/>
<path d="M167.513 22.1924L167.477 15.1132L164.031 20.8794H162.346L158.901 15.306V22.1924H155.396V8.83746H158.518L163.244 16.5272L167.85 8.81909H170.968L171.009 22.174L167.513 22.1924Z" fill="white"/>
</g>
<defs>
<clipPath id="clip0_174_379">
<rect width="171" height="45" fill="white"/>
</clipPath>
</defs>
</svg>
