<svg width="116" height="83" viewBox="0 0 116 83" fill="none" xmlns="http://www.w3.org/2000/svg">
<g clip-path="url(#clip0_174_520)">
<path d="M14.9317 23.6862V44.2305C14.9317 49.7799 11.5687 54.2919 7.46587 54.2919C3.363 54.2919 0 49.7799 0 44.2305V4.42371C0.11933 4.60764 0.248431 4.785 0.386745 4.95503L14.9317 23.6862Z" fill="#D7335A"/>
<path d="M57.7679 24.7911V45.3102C57.7679 50.8595 61.1309 55.3631 65.2422 55.3631C69.3535 55.3631 72.6997 50.8595 72.6997 45.3102V5.49487C72.582 5.68885 72.4474 5.86595 72.3213 6.03463L57.7679 24.7911Z" fill="#D7335A"/>
<path d="M58.3145 4.14546V21.4935C58.3158 21.8477 58.2414 22.1981 58.0964 22.521C57.9514 22.844 57.739 23.132 57.4737 23.3658L43.3323 35.603C41.6925 37.0035 39.6531 37.8477 37.5059 38.015C36.8848 38.0656 36.2606 38.0656 35.6394 38.015C35.4871 38.0042 35.3355 37.9845 35.1854 37.956C33.0864 37.6877 31.1247 36.7643 29.5776 35.3162C28.7009 34.5159 28.0061 33.5357 27.5404 32.4422C27.0747 31.3487 26.8489 30.1675 26.8784 28.9787C26.9079 27.79 27.192 26.6215 27.7114 25.5526C28.2308 24.4838 28.9734 23.5395 29.8887 22.7838L36.6147 16.9646L53.4886 2.26476C55.3046 0.6961 58.3145 1.85994 58.3145 4.14546Z" fill="#D7335A"/>
<path d="M14.9318 3.0153V20.9452C14.9296 21.3082 15.0033 21.6676 15.1482 22.0003C15.293 22.3329 15.5057 22.6314 15.7726 22.8766L29.8635 35.527C31.4832 36.9832 33.5312 37.8712 35.6983 38.0571C36.3159 38.1246 36.9389 38.1246 37.5564 38.0571C37.7091 38.0499 37.8609 38.0302 38.0104 37.9981C40.1649 37.7254 42.1706 36.7506 43.7191 35.2234C44.5998 34.3797 45.2946 33.3602 45.7586 32.2307C46.2226 31.1012 46.4455 29.8867 46.413 28.6655C46.3806 27.4442 46.0934 26.2434 45.57 25.1403C45.0467 24.0372 44.2987 23.0563 43.3744 22.2609L36.6484 16.2477L19.7493 1.084C17.9417 -0.509964 14.9318 0.662314 14.9318 3.0153Z" fill="#D7335A"/>
<path d="M14.9234 42.7632C15.0592 43.6211 15.2616 44.467 15.5287 45.2933C15.7888 46.1276 16.115 46.9399 16.504 47.7222C17.3514 49.4168 18.4078 50.9978 19.6484 52.4281C22.4974 55.6828 25.85 58.4564 29.5776 60.6425C37.6818 65.5 46.6974 68.6294 56.0613 69.8352C58.4523 70.0746 60.8564 70.1563 63.2581 70.0798C65.7131 70.0798 68.2101 69.9027 70.7408 69.7171C75.7853 69.3292 80.9223 68.7726 86.0761 68.0304C96.3921 66.487 106.775 64.21 116.621 60.2124L116.789 60.5076C116.762 60.597 116.702 60.6725 116.621 60.7184L116.41 60.8618L115.998 61.1485L115.158 61.7136C114.603 62.0847 114.048 62.4642 113.476 62.8184C112.35 63.5437 111.198 64.2437 110.037 64.9268C107.717 66.3015 105.371 67.634 102.967 68.8822C98.1829 71.4123 93.2561 73.7315 88.1948 75.7978C83.0922 77.8812 77.8392 79.5728 72.4811 80.858C66.9154 82.2074 61.2152 82.9204 55.4896 82.9833C49.6144 83.108 43.7477 82.4702 38.0356 81.0857C32.2365 79.7184 26.6502 77.5649 21.4308 74.6846C15.8974 71.6731 10.9958 67.6182 6.99507 62.7425C4.86212 60.0479 3.14205 57.049 1.89172 53.845C1.2513 52.1783 0.764432 50.4563 0.437221 48.7005C0.118111 46.9339 -0.0283134 45.1402 3.08217e-05 43.3451L14.9234 42.7632Z" fill="#D7335A"/>
</g>
<defs>
<clipPath id="clip0_174_520">
<rect width="116" height="82.6667" fill="white" transform="translate(0 0.333496)"/>
</clipPath>
</defs>
</svg>
